<svg width="60" height="60" viewBox="0 0 60 60" fill="none" xmlns="http://www.w3.org/2000/svg">
<path fill-rule="evenodd" clip-rule="evenodd" d="M0 17.505C0 7.855 7.8475 0 17.495 0H42.495C52.145 0 60 7.8475 60 17.495V42.495C60 52.145 52.1525 60 42.505 60H17.505C7.855 60 0 52.1525 0 42.505V17.505V17.505ZM36.1613 23.125C36.1613 26.9225 33.1238 30 29.375 30C25.6275 30 22.5887 26.9225 22.5887 23.125C22.5887 19.3275 25.6262 16.25 29.375 16.25C33.1225 16.25 36.1613 19.3275 36.1613 23.125ZM17.5 42.155C17.5 36.8637 21.73 32.5787 26.9525 32.5787H31.7975C37.02 32.5787 41.25 36.8637 41.25 42.1537C41.25 43.0375 40.545 43.75 39.675 43.75H19.075C18.205 43.75 17.5 43.035 17.5 42.155Z" fill="white"/>
</svg>
