<svg width="24" height="36" viewBox="0 0 24 36" fill="none" xmlns="http://www.w3.org/2000/svg">
<g clip-path="url(#clip0_613_388)">
<path d="M23.2448 19.8127L8.65127 34.3142C6.31825 36.5619 5.21944 36.5619 5.01361 34.3142L5.01356 32.1944C5.00288 31.1026 4.8548 29.2707 5.86347 28.279L16.2077 18L5.86347 7.72105C4.8548 6.71875 5.0132 5.98941 5.01356 4.40704L5.00288 1.68588C5.00288 -0.561932 6.31825 -0.562082 8.64054 1.68588L23.2341 16.1874C24.2535 17.1897 24.2535 18.8104 23.2448 19.8127Z" fill="white"/>
<path d="M6.72178 18.705L1.34521 24.3444C0.485671 25.2185 0.0808463 25.2185 0.00501595 24.3444L0.00499453 23.5201C0.00106249 23.0954 -0.0534938 22.383 0.318122 21.9974L4.12916 18L0.318122 14.0026C-0.0534938 13.6128 0.0048624 13.3292 0.00499453 12.7138L0.00106249 11.6556C0.00106249 10.7815 0.485671 10.7814 1.34125 11.6556L6.71783 17.2951C7.0934 17.6849 7.0934 18.3152 6.72178 18.705Z" fill="white"/>
</g>
<defs>
<clipPath id="clip0_613_388">
<rect width="24" height="36" fill="white"/>
</clipPath>
</defs>
</svg>
