<svg width="124" height="124" viewBox="0 0 124 124" fill="none" xmlns="http://www.w3.org/2000/svg">
<g clip-path="url(#clip0_704_236)">
<path d="M63.1517 13.1724C62.9215 13.0027 62.7076 12.7541 62.5292 12.4021C61.6039 10.5764 60.2884 7.08449 63.2735 5.80332C62.5119 6.09323 60.8694 6.07952 60.3932 3.70548C59.917 1.33144 59.5512 0.251084 59.4279 0.00766071C61.9663 -0.0630304 66.9483 0.325347 66.5685 2.44439C67.0285 1.858 68.3145 1.22827 69.7788 3.40051C69.9635 3.67447 70.1517 3.94634 70.338 4.21544L70.3387 4.21643C71.9989 6.61402 73.5067 8.79162 70.9896 10.2716C72.293 10.4531 74.6979 11.314 73.89 13.3056C73.8599 13.3798 73.8295 13.4534 73.7987 13.5263C73.8586 13.7799 73.8787 14.044 73.8732 14.2866C73.98 13.535 74.4522 12.4787 75.7791 12.4787C77.7102 12.4787 81.1862 12.9081 80.8 16.3441C80.9287 15.4851 81.7268 13.9389 83.8896 14.6262C86.0524 15.3134 87.108 15.4853 87.3655 15.4853C86.2069 17.919 83.5034 22.443 81.9585 21.0686C82.216 21.7844 82.113 23.302 79.6412 23.6456C79.3291 23.6889 79.0169 23.7367 78.708 23.784L78.4803 23.8188C78.2667 24.7888 77.3893 25.3104 76.6207 25.5277C77.5784 25.3978 79.0508 25.6853 79.5716 27.6219C80.3296 30.4402 81.1709 35.6764 76.8327 36.4191C77.9298 36.2803 80.1271 36.8572 80.1387 40.275C80.1503 43.6927 80.3553 45.2987 80.4564 45.6745C77.0361 44.9088 70.4627 42.6832 71.5309 39.9061C70.7598 40.554 68.8703 40.9806 67.4814 37.5039C67.306 37.0648 67.1253 36.6275 66.9464 36.1946C65.3546 32.3422 63.9088 28.8433 67.6723 27.6689C66.6951 27.2709 65.2887 26.4406 64.5765 25.3393C57.323 36.6173 46.1001 64.6631 50.901 98.1383C52.4365 95.1825 54.588 92.6744 58.3037 96.2319C59.0083 96.9065 59.7579 97.6054 60.5186 98.3145C65.0514 102.54 69.9767 107.132 68.1106 109.142C67.6263 109.664 67.3034 110.098 67.0404 110.453C66.7498 110.844 66.5321 111.137 66.2504 111.34C77.7851 114.945 85.7253 121.212 89 125H10C11.8975 121.551 17.4041 115.8 27.1872 112.093C27.2919 111.794 27.4275 111.441 27.5977 111.017C28.572 108.589 30.34 106.185 31.1022 105.286C32.1888 104.617 34.732 103.625 36.2123 105.008C36.3323 105.12 36.458 105.236 36.587 105.354C37.7556 106.428 39.1991 107.755 39.2484 109.114C39.6621 109.059 40.0805 109.008 40.5034 108.961C39.8058 88.9105 43.1879 43.9489 62.3035 22.8913C62.7315 22.4198 63.1455 21.9773 63.5436 21.5648C61.953 21.7375 61.63 20.6684 61.6828 19.8883C61.5511 20.5063 61.0442 21.3599 59.7185 21.2981C57.7892 21.2082 54.3308 20.6905 54.8311 17.8602C54.6739 18.5663 53.825 19.8108 51.6871 19.1404C49.5492 18.47 48.5003 18.2785 48.243 18.2665C49.4817 16.303 52.3333 12.6787 53.8309 13.8899C53.5975 13.2846 53.751 12.0314 56.2319 11.8617C56.5451 11.8402 56.8585 11.8152 57.1686 11.7904C59.9293 11.5696 62.4369 11.369 62.334 13.9295C62.5434 13.6934 62.8265 13.4209 63.1517 13.1724Z" fill="#010101"/>
<path d="M80.4962 59.7301C80.364 59.5761 80.2572 59.3747 80.1941 59.1139C79.8665 57.7617 79.5606 55.2645 81.8975 55.0301C81.3078 55.0662 79.2436 55.6874 79.331 54.0719C79.4184 52.4563 80.4962 52.0588 81.8974 51.0588C83.7028 51.5126 85.4705 52.241 84.824 53.5248C85.2535 53.2393 86.2741 53.0884 86.9206 54.7689C87.0021 54.9808 87.0866 55.1921 87.1701 55.4013C87.9147 57.2647 88.5912 58.9579 86.5494 59.4117C87.4375 59.7843 88.9823 60.8091 88.0563 61.9269C88.0218 61.9686 87.9871 62.0098 87.9524 62.0505C87.9494 62.2248 87.9165 62.3981 87.8693 62.5525C88.0789 62.0917 88.6009 61.5074 89.538 61.7683C90.9018 62.148 93.0958 60.8795 92.2098 63.0062C92.454 62.4808 94.1312 62.538 94.8156 62.9599C95.5001 63.3817 95.5001 65.8059 95.5001 66.9999C94.2474 68.3323 93.0305 67.4475 92.1848 66.2626C92.2388 66.7721 92.0795 69.952 90.2725 69.6862C90.0443 69.6527 89.8154 69.6219 89.5888 69.5915L89.4217 69.569C89.0977 70.1488 88.385 70.3107 87.8035 70.2989C88.503 70.4039 90.0637 70.0335 90.0859 71.3774C90.1183 73.3331 89.7778 76.8551 86.5815 76.4783C87.3811 76.605 87.8693 78.5588 85.9998 80.5588C84.4468 82.2203 82.9999 82.835 82.9999 82.835C80.7211 81.6717 80.9648 79.2415 82.2148 77.6712C81.5546 77.9349 80.144 77.8369 79.7837 75.335C79.7382 75.0191 79.6886 74.7032 79.6395 74.3905C79.2028 71.6079 78.234 69.9249 81.1016 69.9121C80.4825 69.4647 79.6374 68.656 79.331 67.81C72.1954 73.6136 59.2639 89.3855 56.6799 111.789C58.2919 110.196 60.259 109.011 62.2482 112.022C62.6254 112.593 63.0301 113.189 63.4408 113.793C65.8878 117.393 68.5467 121.305 66.87 122.227C66.4349 122.466 66.1293 122.681 65.8803 122.857C65.6052 123.05 65.3992 123.195 65.1639 123.27C72.6668 127.849 77.1561 133.427 78.7927 136.5L22.9999 120.967C24.9556 119.129 29.8709 116.525 37.4417 116.072C37.569 115.901 37.7279 115.701 37.9237 115.463C39.0452 114.098 40.7228 112.904 41.4215 112.478C42.3083 112.263 44.2814 112.127 45.0801 113.305C45.1449 113.4 45.213 113.499 45.2829 113.6C45.9165 114.519 46.6992 115.653 46.4916 116.534C46.7935 116.58 47.098 116.629 47.4052 116.682C50.491 103.692 60.9041 75.5342 78.1626 65.7937C78.549 65.5756 78.9204 65.3734 79.2751 65.1871C78.121 64.9851 78.0837 64.2363 78.2602 63.7466C78.0569 64.1169 77.5466 64.5644 76.6213 64.2641C75.2748 63.8271 72.9248 62.8152 73.7832 61.0992C73.5462 61.521 72.3901 63.4026 70.9999 62.5525C69.6097 61.7024 69.6794 61.9852 69.4999 61.9269C70.7251 60.9117 72.944 57.2865 73.7855 58.3574C73.7287 57.9235 74.0607 57.1503 75.8431 57.5293C76.0682 57.5771 76.2939 57.6227 76.5174 57.6678C78.5065 58.069 80.3133 58.4335 79.7837 60.0547C79.9737 59.9445 80.2222 59.8255 80.4962 59.7301Z" fill="#010101"/>
</g>
<defs>
<clipPath id="clip0_704_236">
<rect width="124" height="124" fill="white"/>
</clipPath>
</defs>
</svg>
