<svg width="38" height="36" viewBox="0 0 38 36" fill="none" xmlns="http://www.w3.org/2000/svg">
<path d="M37.7946 31.0262C39.0744 33.2314 34.0619 34.8215 31.3957 35.5362C28.7295 36.2508 18.9979 35.9267 18.9979 35.9267V17.9633V0C19.948 0.937217 19.9216 1.6922 19.7897 1.95254C19.9216 1.95254 20.3439 2.03064 20.9773 2.34304C22.2441 2.96785 20.9773 4.2457 20.1856 4.80652C24.0148 5.65277 23.0179 10.7024 21.7974 11.7305C22.3307 11.6285 23.7171 11.6693 24.9969 12.6494C27.7964 14.7933 28.5962 27.0445 31.3957 27.0445C33.6353 27.0445 33.1287 28.4739 32.5955 29.1885C33.7953 28.8822 36.5148 28.821 37.7946 31.0262Z" fill="#93D20B"/>
<path d="M0.201273 31.0262C-1.0785 33.2314 4.05957 34.431 6.72576 35.1456C9.39195 35.8603 18.9979 35.9267 18.9979 35.9267V17.9633V0C18.0478 0.937217 18.0742 1.6922 18.2062 1.95254C18.0742 1.95254 17.6519 2.03064 17.0185 2.34304C15.7517 2.96785 17.0185 4.2457 17.8103 4.80652C13.981 5.65277 14.978 10.7024 16.1984 11.7305C15.6652 11.6285 14.2788 11.6693 12.999 12.6494C10.1995 14.7933 9.39964 27.0445 6.60013 27.0445C4.36053 27.0445 4.86711 28.4739 5.40035 29.1885C4.20056 28.8822 1.48105 28.821 0.201273 31.0262Z" fill="#93D20B"/>
</svg>
