<svg
        xmlns="http://www.w3.org/2000/svg"
        width="100%"
        height="100%"
        viewBox="0 0 266 512"
        fill="none"
>
    <path
            fill-rule="evenodd"
            clip-rule="evenodd"
            d="M112.11 1.396C107.329 4.045 107.073 5.693 107.035 34.067L107 60.634L99.25 62.446C76.064 67.865 55.802 78.563 39.666 93.905C15.172 117.194 3.792 146.202 6.976 177.232C9.462 201.454 15.767 215.865 31.607 233.523C48.842 252.736 68.193 263.911 122.588 286.062C164.197 303.007 178.414 311.116 186.582 322.563C193.697 332.534 195.373 340.424 192.877 352.201C190.577 363.049 185.121 370.772 175.001 377.499C162.584 385.754 147.504 389.617 131.11 388.74C102.721 387.223 74.206 375.196 48.413 353.862C41.32 347.995 39.185 347.219 34.77 348.897C33.425 349.409 25.442 358.917 16.205 371.009C-1.292 393.914 -1.989 395.399 2.081 401.113C6.817 407.765 28.52 424.063 43.102 431.919C57.954 439.92 81.112 448.096 97 450.947C100.575 451.589 104.287 452.344 105.25 452.624C106.857 453.093 107 455.205 107 478.52C107 496.072 107.369 504.715 108.195 506.528C110.464 511.509 113.007 512 136.527 512H158.154L161.077 509.077L164 506.154V479.596V453.038L166.25 452.551C196.863 445.922 216.411 435.705 234.568 416.843C254.794 395.83 264.349 373.898 265.675 345.435C266.394 330.011 265.131 319.722 261.031 307.593C256.065 292.9 251.562 285.461 241.552 275.417C221.963 255.76 203.007 245.116 153.5 225.974C94.779 203.27 77.455 188.837 79.225 164.094C79.535 159.772 80.693 155.206 82.503 151.173C91.761 130.543 124.524 118.696 156.14 124.547C175.508 128.132 190.436 134.53 209.279 147.324C216.307 152.096 222.924 156 223.982 156C229.105 156 230.798 153.829 243.484 130.99C250.438 118.471 256.363 107.329 256.65 106.231C258.943 97.46 227.745 76.359 198.88 67.157C188.788 63.94 171.013 60 166.593 60H164V32.923V5.846L161.077 2.923L158.154 0L136.327 0.035C120.135 0.062 113.883 0.413 112.11 1.396Z"
            fill="white"
    />
</svg>