<svg width="124" height="124" viewBox="0 0 124 124" fill="none" xmlns="http://www.w3.org/2000/svg">
<path d="M109.766 61.7097H14C14 101.194 30.721 112.892 39.0815 113.806H84.6844C97.2251 113.806 112.046 90.5 109.766 61.7097Z" fill="black"/>
<path d="M38.2526 120.446C38.2526 119.036 39.3837 117.892 40.7789 117.892H85.2421C86.6373 117.892 87.7684 119.036 87.7684 120.446C87.7684 121.857 86.6373 123 85.2421 123H40.7789C39.3837 123 38.2526 121.857 38.2526 120.446Z" fill="black"/>
<path d="M19.1966 50.9705C20.2972 46.5181 26.9013 42.0657 30.2033 44.2919C38.275 46.5181 58.6008 49.4121 75.331 43.1785C96.2439 35.3866 100.647 45.4047 101.747 47.6309C102.848 49.8571 98.4452 56.5357 91.8412 54.3095C85.2371 52.0833 94.0425 53.1964 95.1432 47.6309C96.2439 42.0654 88.5391 46.5178 72.029 53.1964C55.5189 59.8751 43.4115 55.4226 35.7068 50.9705C28.0021 46.5184 28.002 52.0833 25.8006 53.1964C23.5993 54.3095 18.0959 55.4229 19.1966 50.9705Z" fill="black"/>
<path d="M40.9623 36.7465C37.5018 36.7465 38.0787 38.9386 38.7997 40.6922C39.1602 41.1306 42.0439 43.3226 50.6951 43.3226C59.3462 43.3226 66.5556 42.4457 69.0788 42.0073C70.8091 38.8508 67.637 37.1849 65.8346 36.7466C65.8346 32.538 60.7881 33.2394 58.2648 34.1162C58.2648 27.8033 53.2183 29.7322 50.6951 31.4857C49.8299 25.1727 45.2881 28.8553 43.1253 31.4857C38.7997 30.4336 39.881 34.5545 40.9623 36.7465Z" fill="black"/>
<path d="M90 5.67799L76.6799 37M75.6601 3L69 32.0847" stroke="black" stroke-width="6" stroke-linecap="round"/>
</svg>
