<svg width="124" height="124" viewBox="0 0 124 124" fill="none" xmlns="http://www.w3.org/2000/svg">
<path fill-rule="evenodd" clip-rule="evenodd" d="M71.2569 43.6148C78.2196 49.5064 80.4067 56.3353 80.6298 59.0133C80.6298 59.0133 73.6274 59.4282 69.2484 60.352C64.8773 61.2741 60.7917 63.8459 56.0599 66.8244C53.5441 68.4081 50.8456 70.1067 47.8244 71.7335C44.3713 73.5928 38.4514 75.081 38.4514 75.081C33.0954 67.7165 34.2112 58.1203 35.1039 53.657C32.4259 52.9875 16.3579 34.911 13.6799 20.8516C11.002 6.79208 13.6799 -1.91141 26.4004 6.79208C36.5768 13.7549 43.1379 32.4562 45.1464 40.9365C50.5024 37.1873 55.8584 36.6964 57.8669 36.9195C57.3313 35.3127 52.7341 19.7359 50.5024 12.1484C49.3866 7.01556 50.7702 -2.17889 65.2314 2.1059C81.2857 6.86275 80.9693 16.3724 80.6976 24.5377L80.6975 24.5384C80.6633 25.5666 80.6298 26.5735 80.6298 27.5469C80.6298 34.5097 76.1665 33.126 73.9349 31.5639L71.2569 43.6148ZM28.4089 90.4796V117.929C32.8722 119.714 46.0837 123.285 63.2229 123.285C80.362 123.285 86.8785 119.714 87.9943 117.929V91.8188C90.6723 93.1579 104.732 95.1663 110.088 93.8273C115.324 92.5181 129.503 85.793 116.113 71.064C102.723 56.335 67.2399 67.047 50.5024 75.081C33.7649 83.115 11.6714 83.7846 8.32394 82.4456C4.97645 81.1066 0.289956 83.7846 4.97645 88.4711C8.72564 92.2203 22.1603 91.3723 28.4089 90.4796ZM51.8415 58.3436C51.8415 60.1923 50.3428 61.6911 48.4941 61.6911C46.6453 61.6911 45.1466 60.1923 45.1466 58.3436C45.1466 56.4948 46.6453 54.9961 48.4941 54.9961C50.3428 54.9961 51.8415 56.4948 51.8415 58.3436ZM61.884 57.674C63.7327 57.674 65.2314 56.1752 65.2314 54.3265C65.2314 52.4777 63.7327 50.979 61.884 50.979C60.0352 50.979 58.5365 52.4777 58.5365 54.3265C58.5365 56.1752 60.0352 57.674 61.884 57.674Z" fill="black"/>
</svg>
