<svg width="29" height="29" viewBox="0 0 29 29" fill="none" xmlns="http://www.w3.org/2000/svg">
<path fill-rule="evenodd" clip-rule="evenodd" d="M0 8.46069C0 3.79653 3.79302 0 8.45598 0H20.5393C25.2035 0 29 3.79302 29 8.45597V20.5393C29 25.2035 25.207 29 20.544 29H8.4607C3.79653 29 0 25.207 0 20.544V8.46069ZM14.6557 24.5C20.2273 24.5 24 20.4395 24 14.7339C24 14.0685 23.9377 13.5766 23.8482 13.0645H14.6557V16.504H20.1377C19.9119 17.9758 18.4791 20.8145 14.6557 20.8145C11.3619 20.8145 8.67152 17.9879 8.67152 14.5C8.67152 8.87903 15.0645 6.29839 18.5025 9.73387L21.1305 7.11694C19.4447 5.4879 17.2566 4.5 14.6557 4.5C9.31393 4.5 5 8.96774 5 14.5C5 20.0323 9.31393 24.5 14.6557 24.5Z" fill="white"/>
</svg>
