<svg width="48" height="48" viewBox="0 0 48 48" fill="none" xmlns="http://www.w3.org/2000/svg">
<path d="M13.9961 0C6.27809 0 0 6.28391 0 14.0039V34.0039C0 41.7219 6.28391 48 14.0039 48H34.0039C41.7219 48 48 41.7161 48 33.9961V13.9961C48 6.27809 41.7161 0 33.9961 0H13.9961ZM38 8C39.104 8 40 8.896 40 10C40 11.104 39.104 12 38 12C36.896 12 36 11.104 36 10C36 8.896 36.896 8 38 8ZM24 12C30.618 12 36 17.382 36 24C36 30.618 30.618 36 24 36C17.382 36 12 30.618 12 24C12 17.382 17.382 12 24 12ZM24 16C21.8783 16 19.8434 16.8429 18.3431 18.3431C16.8429 19.8434 16 21.8783 16 24C16 26.1217 16.8429 28.1566 18.3431 29.6569C19.8434 31.1571 21.8783 32 24 32C26.1217 32 28.1566 31.1571 29.6569 29.6569C31.1571 28.1566 32 26.1217 32 24C32 21.8783 31.1571 19.8434 29.6569 18.3431C28.1566 16.8429 26.1217 16 24 16V16Z" fill="white"/>
</svg>
