<svg width="13" height="16" viewBox="0 0 13 16" fill="none" xmlns="http://www.w3.org/2000/svg">
<path d="M5.83199 15.2157C0.913047 8.82702 0 8.17134 0 5.82339C0 2.60721 2.91014 0 6.5 0C10.0899 0 13 2.60721 13 5.82339C13 8.17134 12.087 8.82702 7.16801 15.2157C6.84521 15.6335 6.15476 15.6335 5.83199 15.2157ZM6.5 8.24981C7.99578 8.24981 9.20833 7.16347 9.20833 5.82339C9.20833 4.48332 7.99578 3.39698 6.5 3.39698C5.00422 3.39698 3.79167 4.48332 3.79167 5.82339C3.79167 7.16347 5.00422 8.24981 6.5 8.24981Z" fill="white" fill-opacity="0.6"/>
</svg>
