<svg width="599" height="599" viewBox="0 0 599 599" fill="none" xmlns="http://www.w3.org/2000/svg">
<path fill-rule="evenodd" clip-rule="evenodd" d="M511.278 87.7215C628.241 204.684 628.241 394.316 511.278 511.278C394.316 628.24 204.684 628.24 87.7215 511.278C-29.2405 394.316 -29.2405 204.684 87.7215 87.7215C204.684 -29.2405 394.316 -29.2405 511.278 87.7215ZM472.307 181.141C528.213 262.901 519.872 375.405 447.285 447.992C374.698 520.579 262.194 528.92 180.434 473.014L472.307 181.141ZM414.616 124.279L123.572 415.324C69.5518 333.786 78.4611 222.847 150.3 151.008C222.14 79.1682 333.079 70.2588 414.616 124.279Z" fill="white"/>
</svg>
