<?xml version="1.0" encoding="UTF-8" standalone="no"?>
<!DOCTYPE svg PUBLIC "-//W3C//DTD SVG 1.1//EN" "http://www.w3.org/Graphics/SVG/1.1/DTD/svg11.dtd">
<!-- Created with Vectornator (http://vectornator.io/) -->
<svg height="100%" stroke-miterlimit="10" style="fill-rule:nonzero;clip-rule:evenodd;stroke-linecap:round;stroke-linejoin:round;" version="1.1" viewBox="0 0 965 180" width="100%" xml:space="preserve" xmlns="http://www.w3.org/2000/svg" xmlns:xlink="http://www.w3.org/1999/xlink">
<defs/>
<g id="Слой-1-скопировать">
<path d="M95.9224 167.148L9.07388 167.148L9.07388 3.93013L0 3.93013L0 175.425L95.9224 175.425L95.9224 167.148Z" fill="#ffffff" fill-rule="nonzero" opacity="1" stroke="none"/>
<path d="M162.036 175.425L162.036 3.93013L152.962 3.93013L152.962 175.425L162.036 175.425Z" fill="#ffffff" fill-rule="nonzero" opacity="1" stroke="none"/>
<path d="M291.267 3.93013L235.56 3.93013L235.56 175.425L244.633 175.425L244.633 99.7895L296.251 99.7895L335.199 175.425L345.684 175.425L305.844 97.9952C312.855 96.36 319.145 93.6222 324.713 89.782C330.281 85.9417 334.7 80.8576 337.968 74.5297C341.236 68.2018 342.871 60.6139 342.871 51.7661C342.871 42.2861 340.795 33.9457 336.645 26.745C332.494 19.5442 326.564 13.9416 318.852 9.93699C311.141 5.93241 301.946 3.93013 291.267 3.93013ZM244.633 91.6206L244.633 12.097L289.928 12.097C303.332 12.097 313.961 15.6369 321.816 22.7167C329.67 29.7965 333.598 39.5474 333.598 51.9692C333.598 64.257 329.641 73.9375 321.728 81.0108C313.815 88.084 303.165 91.6206 289.78 91.6206L244.633 91.6206Z" fill="#ffffff" fill-rule="nonzero" opacity="1" stroke="none"/>
<path d="M466.824 170.807C450.106 170.807 437.275 165.862 428.331 155.972C419.387 146.082 414.914 132.88 414.914 116.366L414.914 3.93013L405.878 3.93013L405.878 116.752C405.878 129.32 408.264 140.297 413.037 149.682C417.81 159.067 424.729 166.368 433.793 171.584C442.857 176.8 453.867 179.408 466.824 179.408C479.865 179.408 490.915 176.8 499.973 171.584C509.031 166.368 515.946 159.067 520.719 149.682C525.492 140.297 527.878 129.32 527.878 116.752L527.878 3.93013L518.734 3.93013L518.734 116.366C518.734 132.952 514.297 146.172 505.424 156.026C496.552 165.88 483.685 170.807 466.824 170.807Z" fill="#ffffff" fill-rule="nonzero" opacity="1" stroke="none"/>
<path d="M693.473 167.148L790.821 167.148L790.821 175.425L693.473 175.425L693.473 167.148Z" fill="#ffffff" fill-rule="nonzero" opacity="1" stroke="#000000" stroke-linecap="round" stroke-linejoin="round" stroke-width="0"/>
<path d="M693.473 167.148L606.625 167.148L606.625 3.93013L597.551 3.93013L597.551 175.425L693.473 175.425L693.473 167.148Z" fill="#ffffff" fill-rule="nonzero" opacity="1" stroke="none"/>
<path d="M843.581 132.868C843.606 137.629 844.643 142.732 846.693 148.178C848.743 153.624 852.019 158.754 856.52 163.568C861.021 168.381 867.001 172.323 874.46 175.394C881.918 178.465 891.062 180 901.892 180C913.443 180 923.636 178.089 932.472 174.267C941.308 170.445 948.23 165 953.239 157.931C958.248 150.863 960.752 142.476 960.752 132.771C960.752 123.615 958.916 116.193 955.244 110.508C951.572 104.822 946.252 100.173 939.282 96.5606C932.313 92.9484 923.795 89.7851 913.729 87.0707L893.14 81.4532C882.01 78.4036 873.499 74.2663 867.605 69.0412C861.712 63.8161 858.765 56.181 858.765 46.1357C858.765 34.977 862.756 25.9728 870.739 19.1231C878.722 12.2733 889.726 8.84841 903.752 8.84841C914.223 8.84841 922.69 10.6256 929.152 14.1799C935.615 17.7343 940.346 22.1451 943.345 27.4122C946.344 32.6793 947.916 37.9221 948.06 43.1406L957.369 43.1406C957.332 35.3747 955.213 28.2755 951.012 21.8431C946.811 15.4106 940.755 10.2395 932.844 6.32953C924.932 2.4196 915.259 0.464633 903.825 0.464633C892.808 0.464633 883.212 2.37228 875.037 6.18756C866.861 10.0029 860.53 15.3367 856.043 22.1891C851.556 29.0415 849.312 37.0552 849.312 46.2303C849.312 54.3459 850.906 61.2315 854.094 66.8871C857.281 72.5427 861.814 77.2153 867.691 80.9051C873.568 84.5948 880.512 87.5025 888.524 89.628L909.957 95.3519C923.38 98.9536 933.641 103.415 940.74 108.735C947.839 114.055 951.389 122.243 951.389 133.298C951.389 140.71 949.365 147.292 945.318 153.045C941.27 158.797 935.608 163.33 928.329 166.645C921.051 169.959 912.541 171.616 902.799 171.616C893.543 171.616 885.75 170.347 879.421 167.809C873.091 165.271 867.993 162.014 864.124 158.04C860.255 154.066 857.452 149.841 855.714 145.368C853.975 140.894 853.04 136.727 852.907 132.868L843.581 132.868Z" fill="#ffffff" fill-rule="nonzero" opacity="1" stroke="none"/>
<path d="M693.473 4.52244L790.821 4.52244L790.821 12.9062L693.473 12.9062L693.473 4.52244Z" fill="#ffdd00" fill-rule="nonzero" opacity="1" stroke="#000000" stroke-linecap="round" stroke-linejoin="round" stroke-width="0"/>
<path d="M693.473 83.8774L742.147 83.8774L742.147 92.2612L693.473 92.2612L693.473 83.8774Z" fill="#ffdd00" fill-rule="nonzero" opacity="1" stroke="#000000" stroke-linecap="round" stroke-linejoin="round" stroke-width="0"/>
</g>
</svg>
