<svg width="124" height="124" viewBox="0 0 124 124" fill="none" xmlns="http://www.w3.org/2000/svg">
<g clip-path="url(#clip0_704_263)">
<path d="M0.256941 51.2635C-0.437249 49.7591 0.233993 48.0092 1.7562 47.3549L88.2377 10.1846C89.76 9.53032 91.5567 10.2195 92.2509 11.7239L95.187 18.087L3.19309 57.6266L0.256941 51.2635Z" fill="black"/>
<path fill-rule="evenodd" clip-rule="evenodd" d="M24.21 57.6886C24.21 54.5468 26.8054 51.9998 30.0071 51.9998H118.413C121.615 51.9998 124.21 54.5468 124.21 57.6886V110.311C124.21 113.453 121.615 116 118.413 116H30.0071C26.8054 116 24.21 113.453 24.21 110.311V57.6886ZM31.4563 66.222C31.4563 64.651 32.7541 63.3775 34.3549 63.3775H50.2969C51.8977 63.3775 53.1955 64.651 53.1955 66.222V76.1775C53.1955 77.7485 51.8977 79.022 50.2969 79.022H34.3549C32.7541 79.022 31.4563 77.7485 31.4563 76.1775V66.222ZM98.8476 110.311C101.132 110.311 103.191 109.368 104.645 107.857C106.098 109.368 108.158 110.311 110.442 110.311C114.844 110.311 118.413 106.809 118.413 102.489C118.413 98.1686 114.844 94.6664 110.442 94.6664C108.158 94.6664 106.098 95.6092 104.645 97.1198C103.191 95.6092 101.132 94.6664 98.8476 94.6664C94.4454 94.6664 90.8766 98.1686 90.8766 102.489C90.8766 106.809 94.4454 110.311 98.8476 110.311Z" fill="black"/>
<path d="M20.3981 59.8666L7.20996 65.5158L20.3981 93.9998V59.8666Z" fill="black"/>
<path d="M50.3086 47.0544H109.21L99.4616 25.9998L50.3086 47.0544Z" fill="black"/>
</g>
<defs>
<clipPath id="clip0_704_263">
<rect width="124" height="124" fill="white"/>
</clipPath>
</defs>
</svg>
