<svg width="58" height="48" viewBox="0 0 58 48" fill="none" xmlns="http://www.w3.org/2000/svg">
    <g clip-path="url(#clip0_690_9)">
        <rect width="58" height="48" fill=""/>
        <path d="M28.0766 42.6994C29.2766 44.6994 31.2432 45.8661 32.0766 46.1994C34.8765 47.7994 34.9099 46.5328 34.5767 45.6995C33.0378 44.0328 29.9833 40.0995 30.0767 37.6995C30.17 35.2995 28.1156 31.0328 27.0767 29.1995C29.0767 29.1995 34.0767 25.1995 36.0767 25.1995C38.0767 25.1995 37.5767 26.1995 36.5767 28.6995C35.7767 30.6995 36.5767 33.1995 37.0767 34.1995L40.5767 40.6995C41.0767 41.5328 40.9711 42.9106 40.0767 44.6995C39.5767 45.6995 38.2433 46.1995 38.5767 46.6995C39.5767 47.6995 42.2767 46.3995 43.0767 45.1995C44.0767 43.6995 44.2433 42.3661 44.0767 41.1995C43.5767 39.8661 43.0767 37.1995 42.5767 35.1995C42.011 32.9367 42.0767 31.3661 42.5767 30.6995C44.2433 28.5328 47.5767 23.6995 47.5767 21.6994C47.5767 19.6994 48.5767 19.5328 49.0767 19.6995C51.41 19.0328 56.1767 15.8995 56.5767 8.69946C57.0767 -0.300537 48.0767 -0.300537 37.0767 2.19936C26.0767 4.69926 24.0767 1.19936 20.0767 0.19936C16.8767 -0.60064 17.41 1.19936 18.0767 2.19936C22.0767 6.69936 28.5767 5.6994 44.0767 3.1994C59.5767 0.699395 52.0767 13.6994 50.0767 16.1994C48.0767 18.6994 43.0767 16.1994 34.5767 13.6994C26.0767 11.1994 19.5767 14.6994 16.5767 15.1994C13.5767 15.6994 12.5767 12.1994 9.07666 11.6994C5.57666 11.1994 1.57666 14.6994 1.07666 15.6994C0.576661 16.6994 1.57666 16.6994 4.57655 16.6994H4.57657C7.57648 16.6994 6.07666 20.6994 4.57657 21.6994C3.3765 22.4995 1.74327 21.0328 1.07666 20.1994C0.909964 20.0328 0.476572 20.0994 0.0765719 21.6994C-0.423428 23.6994 1.57657 26.1994 4.57657 26.6994C6.97657 27.0994 10.9099 25.5328 12.5766 24.6994L13.5766 27.6994C14.0766 29.1994 18.0766 30.1994 22.0766 33.6994C26.0766 37.1994 26.5766 40.1994 28.0766 42.6994Z"
              fill="#FF0000"/>
        <path d="M43.5767 31.1995L47.5767 25.1995C48.0767 30.6995 57.3055 35.1148 57.5767 36.1995C58.0767 38.1995 57.5767 42.6995 56.0767 43.1995C54.4767 42.7995 54.5767 41.8661 54.5767 41.1995C54.5767 40.0328 55.2767 38.7995 54.0767 37.1995C52.8767 35.5995 48.5767 37.1995 43.5767 31.1995Z"
              fill="#FF0707"/>
        <path d="M2.57661 45.1995C0.176614 45.5995 -0.0900065 46.5328 0.0766602 47.1995C0.576684 48.1994 4.57664 47.6995 6.57664 47.6995C8.57664 47.6995 9.74331 46.3661 10.0766 45.6995C12.2433 42.1995 16.7766 34.8995 17.5766 33.6995C18.3766 32.4994 17.5766 31.5328 17.0766 31.1995L11.5766 28.6995C11.2433 28.5328 10.6766 28.6995 11.0766 30.6995C11.4766 32.6995 10.91 34.5328 10.5766 35.1995C9.90997 36.8662 8.27664 40.6995 7.07664 42.6995C5.57664 45.1995 5.57661 44.6995 2.57661 45.1995Z"
              fill="#FF1212"/>
        <circle cx="3.57666" cy="19.1995" r="1" fill="inherit"/>
    </g>
    <defs>
        <clipPath id="clip0_690_9">
            <rect width="58" height="48" fill=""/>
        </clipPath>
    </defs>
</svg>
