<svg width="128" height="96" viewBox="0 0 128 96" fill="none" xmlns="http://www.w3.org/2000/svg">
    <g clip-path="url(#clip0_691_30)">
        <rect width="128" height="96" fill="white"/>
        <path d="M42.6666 82.5C38.6461 82.5 35.2478 87.7456 34.0512 90.3684C32.8546 92.9912 52.9057 95.5 65.282 95.5C77.6584 95.5 94 93.4474 94 90.3684C94 87.9737 90.0513 83.5263 87.1795 83.5263C83.5897 83.5263 79.2821 85.5789 75.3333 86.6053C71.3846 87.6316 63.8461 88.6579 56.3077 86.6053C48.7692 84.5526 47.6923 82.5 42.6666 82.5Z"
              fill="inherit"/>
        <path d="M52 8.50003C54.8 7.70003 58.1667 9.83336 59.5 11H67C67.4 8.20005 72.8333 7.50002 75.5 7.5C70.7 3.5 66.8333 4.83343 65.5 6.00014C62.7 4.80025 62.6667 1.50009 63 0C59.4 0 57.8333 4.00009 57.5 6.00014C53.1 5.20014 52 7.3334 52 8.50003Z"
              fill="inherit"/>
        <path d="M57 47.4421C57 51.032 54.3137 53.9421 51 53.9421C47.6863 53.9421 45 51.032 45 47.4421C45 43.8523 47.6863 40.9421 51 40.9421C54.3137 40.9421 57 43.8523 57 47.4421Z"
              fill="inherit"/>
        <path d="M61.0375 57.625C60.6375 58.825 63.5375 60.125 65.0375 60.625C66.3709 60.125 69.0376 58.825 69.0376 57.625C69.0376 56.125 61.5375 56.125 61.0375 57.625Z"
              fill="inherit"/>
        <path d="M57 47C57 50.5899 54.3137 53.5 51 53.5C47.6863 53.5 45 50.5899 45 47C45 43.4101 47.6863 40.5 51 40.5C54.3137 40.5 57 43.4101 57 47Z"
              fill="inherit"/>
        <path d="M85 47C85 50.5899 82.5376 53.5 79.5 53.5C76.4624 53.5 74 50.5899 74 47C74 43.4101 76.4624 40.5 79.5 40.5C82.5376 40.5 85 43.4101 85 47Z"
              fill="inherit"/>
        <ellipse cx="65.5" cy="72" rx="6.5" ry="1.5" fill="inherit"/>
        <path fill-rule="evenodd" clip-rule="evenodd"
              d="M34.467 69.0134C18.9326 71.218 -11.8144 54.793 6.61253 39.8011C16.8972 31.4233 24.1109 34.8405 26.4321 37.5964C27.3249 28.5939 36.0741 8.38416 65.0001 10.0378V32.6358C63.2898 32.2297 61.4375 31.5757 59.516 30.8973C53.6144 28.8136 47.0608 26.4997 41.9664 30.4311C37.6811 33.7381 35.0028 42.0059 36.0741 47.5176C36.6119 50.2845 37.9597 52.0791 39.1009 53.5987C40.233 55.1062 41.1619 56.343 40.8951 57.9899C40.6733 59.3592 39.5331 60.5396 38.273 61.8439C36.49 63.6897 34.467 65.7838 34.467 69.0134ZM31.5001 56.5C31.6668 53.1667 28.5312 48.038 24.0001 42.5C19.5001 37 14.3653 35.7766 10.5001 40.5C8.30882 43.1778 6.30002 50.5 7.50002 54.5C9.00002 59.5 21.5001 66.5002 29.0001 61.5001C29.4635 61.1912 31.3334 59.8333 31.5001 56.5Z"
              fill="inherit"/>
        <path fill-rule="evenodd" clip-rule="evenodd"
              d="M94.5332 69.0712C110.068 71.2759 140.815 54.8509 122.388 39.859C112.103 31.4811 104.889 34.8984 102.568 37.6543C101.675 28.6518 92.9262 8.44202 64.0001 10.0957V32.6936C65.7105 32.2875 67.5628 31.6335 69.4842 30.9551C75.3859 28.8715 81.9395 26.5576 87.0338 30.489C91.3191 33.796 93.9975 42.0637 92.9261 47.5755C92.3883 50.3424 91.0406 52.137 89.8994 53.6566C88.7672 55.164 87.8384 56.4008 88.1051 58.0477C88.3269 59.4171 89.4672 60.5974 90.7272 61.9018C92.5103 63.7476 94.5332 65.8417 94.5332 69.0712ZM97.5002 56.5579C97.3335 53.2245 100.469 48.0958 105 42.5579C109.5 37.0579 114.635 35.8345 118.5 40.5579C120.691 43.2357 122.7 50.5579 121.5 54.5579C120 59.5579 107.5 66.5581 100 61.558C99.5368 61.2491 97.6668 59.8912 97.5002 56.5579Z"
              fill="inherit"/>
    </g>
    <defs>
        <clipPath id="clip0_691_30">
            <rect width="128" height="96" fill="white"/>
        </clipPath>
    </defs>
</svg>
