<svg width="268" height="96" viewBox="0 0 268 96" fill="none" xmlns="http://www.w3.org/2000/svg">
    <g clip-path="url(#clip0_691_30)">
        <path d="M113.895 73C110.276 73 107.218 77.8421 106.141 80.2632C105.064 82.6842 123.11 85 134.249 85C145.388 85 160.095 83.1053 160.095 80.2632C160.095 78.0526 156.541 73.9474 153.957 73.9474C150.726 73.9474 146.849 75.8421 143.295 76.7895C139.741 77.7368 132.956 78.6842 126.172 76.7895C119.387 74.8947 118.418 73 113.895 73Z"
              fill="inherit"/>
        <path d="M122.095 7.72728C124.597 7.00001 127.606 8.9394 128.797 10H135.499C135.857 7.45457 140.712 6.81818 143.095 6.81817C138.806 3.18181 135.35 4.39401 134.159 5.45466C131.657 4.36385 131.627 1.36372 131.925 0C128.708 0 127.308 3.63644 127.01 5.45466C123.078 4.72739 122.095 6.66671 122.095 7.72728Z"
              fill="inherit"/>
        <path d="M126.927 42.226C126.927 45.4212 124.537 48.0114 121.587 48.0114C118.638 48.0114 116.247 45.4212 116.247 42.226C116.247 39.0309 118.638 36.4407 121.587 36.4407C124.537 36.4407 126.927 39.0309 126.927 42.226Z"
              fill="inherit"/>
        <path d="M130.132 51.0909C129.734 52.2545 132.621 53.5152 134.114 54C135.441 53.5152 138.095 52.2545 138.095 51.0909C138.095 49.6364 130.63 49.6364 130.132 51.0909Z"
              fill="inherit"/>
        <path d="M126.927 41.8325C126.927 45.0276 124.537 47.6178 121.587 47.6178C118.638 47.6178 116.247 45.0276 116.247 41.8325C116.247 38.6373 118.638 36.0471 121.587 36.0471C124.537 36.0471 126.927 38.6373 126.927 41.8325Z"
              fill="inherit"/>
        <path d="M151.849 41.8325C151.849 45.0276 149.657 47.6178 146.954 47.6178C144.25 47.6178 142.058 45.0276 142.058 41.8325C142.058 38.6373 144.25 36.0471 146.954 36.0471C149.657 36.0471 151.849 38.6373 151.849 41.8325Z"
              fill="inherit"/>
        <path d="M145.095 60.5047C145.095 62.0421 139.973 67 133.655 67C127.337 67 123.095 62.0421 123.095 60.5047C123.095 58.9673 127.337 61.4327 133.655 61.4327C139.973 61.4327 145.095 58.9673 145.095 60.5047Z"
              fill="inherit"/>
        <path fill-rule="evenodd" clip-rule="evenodd"
              d="M106.872 61.4256C93.0455 63.3879 65.679 48.7687 82.08 35.4252C91.2339 27.9684 97.6544 31.01 99.7204 33.4629C100.515 25.4502 108.302 7.46244 134.048 8.93428V29.0477C132.526 28.6862 130.877 28.1041 129.167 27.5003C123.914 25.6457 118.081 23.5863 113.547 27.0854C109.733 30.0288 107.349 37.3875 108.302 42.2932C108.781 44.7559 109.981 46.3532 110.996 47.7057C112.004 49.0475 112.831 50.1483 112.593 51.6141C112.396 52.8329 111.381 53.8835 110.259 55.0444C108.672 56.6873 106.872 58.5512 106.872 61.4256ZM104.231 50.288C104.38 47.3212 101.589 42.7563 97.5558 37.8273C93.5505 32.932 89.4253 34.0681 85.985 38.2722C84.0347 40.6556 81.8018 44.9477 82.8699 48.5079C84.2049 52.9582 95.3307 59.1887 102.006 54.7384C102.418 54.4634 104.083 53.2548 104.231 50.288Z"
              fill="inherit"/>
        <path fill-rule="evenodd" clip-rule="evenodd"
              d="M160.334 61.4256C174.161 63.3879 201.527 48.7687 185.126 35.4252C175.972 27.9684 169.552 31.01 167.486 33.4629C166.691 25.4502 158.904 7.46244 133.158 8.93428V29.0477C134.68 28.6862 136.329 28.1041 138.039 27.5003C143.292 25.6457 149.125 23.5863 153.659 27.0854C157.473 30.0288 159.857 37.3875 158.904 42.2932C158.425 44.7559 157.225 46.3532 156.21 47.7057C155.202 49.0475 154.375 50.1483 154.613 51.6141C154.81 52.8329 155.825 53.8835 156.947 55.0444C158.534 56.6873 160.334 58.5512 160.334 61.4256ZM162.975 50.288C162.827 47.3212 165.617 42.7563 169.65 37.8273C173.656 32.932 177.781 34.0681 181.221 38.2722C183.171 40.6556 185.404 44.9477 184.336 48.5079C183.001 52.9582 171.875 59.1887 165.2 54.7384C164.788 54.4634 163.123 53.2548 162.975 50.288Z"
              fill="inherit"/>
        <path d="M128.404 90.7099C127.977 89.859 127.764 88.6473 128.404 87.6283C129.334 86.1473 131.749 87.7286 134.214 87.8831C136.573 88.0308 138.979 86.6992 140.18 87.6283C141.125 88.3604 140.18 89.5065 140.18 90.7099C140.18 92.6358 128.983 91.8654 128.404 90.7099Z"
              fill="inherit"/>
        <path d="M79.1799 87.3186C80.7921 85.6183 81.528 84.6508 83.1799 86.3126C84.1799 87.3187 87.1797 93.4152 86.4362 94.1994C84.8239 95.8997 81.1798 94.8126 81.1798 94.8126C81.1798 94.8126 77.0302 89.5856 79.1799 87.3186Z"
              fill="inherit"/>
        <path d="M186.565 87.1513C184.952 85.4511 184.217 84.4836 182.565 86.1454C181.565 87.1515 178.565 93.248 179.308 94.0322C180.921 95.7324 184.565 94.6454 184.565 94.6454C184.565 94.6454 188.714 89.4183 186.565 87.1513Z"
              fill="inherit"/>
        <path d="M86.6667 85.1051C88.6983 82.9626 89.6255 81.7435 91.7071 83.8375C92.9673 85.1053 96.7474 92.7876 95.8104 93.7757C93.7788 95.9182 89.1868 94.5484 89.1868 94.5484C89.1868 94.5484 83.9578 87.9618 86.6667 85.1051Z"
              fill="inherit"/>
        <path d="M179.533 85.1051C177.501 82.9626 176.574 81.7435 174.492 83.8375C173.232 85.1053 169.452 92.7876 170.389 93.7757C172.42 95.9182 177.012 94.5484 177.012 94.5484C177.012 94.5484 182.241 87.9618 179.533 85.1051Z"
              fill="inherit"/>
        <path d="M96.6667 85.4179C98.6983 83.2754 99.6255 82.0562 101.707 84.1503C102.967 85.418 106.747 93.1003 105.81 94.0885C103.779 96.231 99.1868 94.8612 99.1868 94.8612C99.1868 94.8612 93.9578 88.2745 96.6667 85.4179Z"
              fill="inherit"/>
        <path d="M169.533 85.1051C167.501 82.9626 166.574 81.7435 164.492 83.8375C163.232 85.1053 159.452 92.7876 160.389 93.7757C162.42 95.9182 167.012 94.5484 167.012 94.5484C167.012 94.5484 172.241 87.9618 169.533 85.1051Z"
              fill="inherit"/>
        <path d="M245.946 95.0121C242.714 94.1833 235.431 87.2765 240.298 81.4695C239.718 81.0968 237.663 81.7344 238.558 80.3514C239.453 78.9684 237.2 76.8674 235.961 75.9899C238.124 74.9319 239.448 76.8839 239.839 77.9921C240.566 75.1551 244.768 75.8965 243.736 75.9679C242.704 76.0393 241.013 81.3168 241.97 80.2185C242.928 79.1201 247.776 77.3397 252.2 81.162C256.625 84.9842 252.932 94.1159 252.454 94.6651C251.975 95.2142 249.75 95.9875 245.946 95.0121Z"
              fill="inherit"/>
        <ellipse cx="262.5" cy="92" rx="2.5" ry="2" fill="inherit"/>
        <path d="M5 95C7.94345 86.2565 17.8232 68.3198 33.7946 66.5212C34.2158 66.3963 34.6907 66.2214 33.221 66.5212C31.3839 66.8959 25.7321 63.1488 30.7232 62.7739C31.4007 62.723 31.9625 62.7434 32.4259 62.8177C32.3215 62.4403 32.2589 62.0475 32.2589 61.6499C32.2589 59.8512 35.8423 58.652 37.6339 58.2773C38.2738 57.7776 39.4 57.6028 38.7857 60.9003C38.6235 61.7713 38.3326 62.5046 37.9713 63.1168C38.8592 62.8647 39.724 62.7739 40.3214 62.7739C40.3214 63.0237 40.5518 63.8231 41.4732 65.0222C42.625 66.5211 41.0893 62.7739 43.7768 62.7739C45.9268 62.7739 47.4881 65.2721 48 66.5212C46.4643 67.8951 43.0089 70.2684 41.4732 68.7695C40.1427 67.471 37.1792 66.6411 35.329 66.2801C35.5404 66.4053 35.7959 66.6008 36.0982 66.8959C37.25 68.0201 37.25 71.7673 36.8661 73.2662C36.5589 74.4653 35.2024 75.5145 34.5625 75.8892L33.4107 73.2662C32.8988 72.5167 31.9518 70.6431 32.2589 69.1442C32.5661 67.6454 33.4107 68.2699 33.7946 68.7695V66.5212C28.5476 68.145 17.1321 74.84 13.4464 88.6297C15.2381 90.7532 17.4393 95 11.9107 95H5Z"
              fill="inherit"/>
        <path d="M25.4607 82.8297C17.0225 79.1938 16.4756 88.3846 17.2569 93.4345C17.4868 95.7069 33.2739 95.3282 36.0085 93.4345C38.7431 91.5407 36.0085 87.3746 25.4607 82.8297Z"
              fill="inherit"/>
        <path d="M40.1833 86.6418C38.5114 82.6328 35.2406 85.7539 33.8141 87.8156C33.1305 88.7043 38.6675 93.629 40.24 93.8264C41.8125 94.0237 42.2731 91.6529 40.1833 86.6418Z"
              fill="inherit"/>
        <path d="M246 93.055V94.3119L250.245 94.6261C256.122 96.1972 258.408 92.4266 260.041 90.5413C261.347 89.033 260.585 86.5612 260.041 85.5138L262 83.6284L261.347 83C260.367 83.5237 257.886 85.4509 255.796 88.9702C253.706 92.4894 248.395 93.1598 246 93.055Z"
              fill="inherit"/>
    </g>
    <defs>
        <clipPath id="clip0_691_30">
            <rect width="268" height="96" fill="white"/>
        </clipPath>
    </defs>
</svg>
