<svg width="268" height="96" viewBox="0 0 268 96" fill="none" xmlns="http://www.w3.org/2000/svg">
    <path fill-rule="evenodd" clip-rule="evenodd"
          d="M95 79.1887V68.6888C96.8334 66.6888 99.2 62.6887 94 62.6887V46.1887C95.5 44.1887 97.3 40.2887 92.5 40.6887V25.6887C93.5 24.0221 94.9 20.6887 92.5 20.6887V18.1887C94.5 17.3554 96.7 14.3887 89.5 9.18874L89 4L88.6615 9.18872C81.4615 14.3887 83.6615 17.3554 85.6615 18.1887V20.6887C83.2615 20.6887 84.6615 24.0221 85.6615 25.6887V40.6887C80.8615 40.2887 82.6615 44.1887 84.1615 46.1887V62.6887C78.9615 62.6887 81.3282 66.6887 83.1615 68.6887V77.0381C77.8843 75.9247 72.5677 74.5899 67.5 73C75.1667 80.3333 98 94.9999 128 94.9999C135 95.3333 153.9 93.5999 173.5 83.9999C176.454 82.553 179.096 81.2368 181.478 80.0498C198.854 71.3928 202.447 69.6028 213 73.9999C208.333 69 193.9 61.4001 173.5 71.0001C173.001 71.2348 172.501 71.4649 172 71.6903V68.6888C173.833 66.6888 176.2 62.6887 171 62.6887V46.1887C172.5 44.1887 174.3 40.2887 169.5 40.6887V25.6887C170.5 24.0221 171.9 20.6887 169.5 20.6887V18.1887C171.5 17.3554 173.7 14.3887 166.5 9.18874L166 4L165.662 9.18872C158.462 14.3887 160.662 17.3554 162.662 18.1887V20.6887C160.262 20.6887 161.662 24.0221 162.662 25.6887V40.6887C157.862 40.2887 159.662 44.1887 161.162 46.1887V62.6887C155.962 62.6887 158.328 66.6887 160.162 68.6887V76.1763C155.48 77.6516 150.87 78.7834 146.519 79.6403V63.5C146.519 63.5 146.762 61.2426 145.519 60C144.276 58.7574 142.019 59 142.019 59C142.019 59 142.538 56.0188 141.019 54.5C139.5 52.9812 136.519 53.5 136.519 53.5V49C142.186 45.8333 148.219 36.2 127.019 23L126.5 16L125.519 23C104.319 36.2 110.352 45.8333 116.019 49V53.5C116.019 53.5 113.038 52.9812 111.519 54.5C110 56.0188 110.519 59 110.519 59C110.519 59 108.262 58.7574 107.019 60C105.776 61.2426 106.019 63.5 106.019 63.5V80.7086C102.547 80.3089 98.7889 79.8075 94.877 79.1887H95ZM111.022 81.2365C113.617 81.4847 115.972 81.6693 118.011 81.7989V75.5941C118.011 75.5941 118.091 74.6118 117.732 74.2717C117.372 73.9315 116.334 74.0072 116.334 74.0072H112.7C112.7 74.0072 111.635 73.9568 111.302 74.2717C110.969 74.5867 111.022 75.5941 111.022 75.5941V81.2365ZM121.019 81.9616C121.361 81.9765 121.688 81.9893 122 82C124.679 82.1031 128.675 82.0086 133.519 81.5452V69.4999C133.519 69.4999 133.662 67.6429 133.019 66.9999C132.376 66.3568 130.519 66.4999 130.519 66.4999H124.019C124.019 66.4999 122.114 66.4047 121.519 67C120.924 67.5953 121.019 69.4999 121.019 69.4999V81.9616ZM136.022 81.2805C138.222 81.026 140.564 80.698 143.011 80.2829V75.5941C143.011 75.5941 143.091 74.6118 142.732 74.2717C142.372 73.9315 141.334 74.0072 141.334 74.0072H137.7C137.7 74.0072 136.635 73.9568 136.302 74.2717C135.969 74.5867 136.022 75.5941 136.022 75.5941V81.2805Z"
          fill="black"/>
</svg>
