<svg width="68" height="53" viewBox="0 0 68 53" fill="none" xmlns="http://www.w3.org/2000/svg">
<path fill-rule="evenodd" clip-rule="evenodd" d="M34.8902 40.3974L57.3444 22.6316L57.9648 23.4158L34.8902 41.6725L11.8157 23.4158L12.4362 22.6316L34.8902 40.3974ZM34.8902 51.646L48.3323 40.648L48.9655 41.4219L34.8902 52.9381L20.815 41.4219L21.4483 40.648L34.8902 51.646Z" fill="white"/>
<path d="M3.27039 9.27772C2.75039 9.27772 2.25839 9.20572 1.79439 9.06172C1.33039 8.90972 0.966393 8.72172 0.702393 8.49772L1.08639 7.82572C1.34239 8.01772 1.67039 8.18572 2.07039 8.32972C2.47039 8.46572 2.89039 8.53372 3.33039 8.53372C3.93039 8.53372 4.36239 8.44172 4.62639 8.25772C4.89039 8.06572 5.02239 7.81372 5.02239 7.50172C5.02239 7.26972 4.94639 7.08972 4.79439 6.96172C4.65039 6.82572 4.45839 6.72572 4.21839 6.66172C3.97839 6.58972 3.71039 6.52972 3.41439 6.48172C3.11839 6.43372 2.82239 6.37772 2.52639 6.31372C2.23839 6.24972 1.97439 6.15772 1.73439 6.03772C1.49439 5.90972 1.29839 5.73772 1.14639 5.52172C1.00239 5.30572 0.930393 5.01772 0.930393 4.65772C0.930393 4.31372 1.02639 4.00572 1.21839 3.73372C1.41039 3.46172 1.69039 3.24972 2.05839 3.09772C2.43439 2.93772 2.89039 2.85772 3.42639 2.85772C3.83439 2.85772 4.24239 2.91372 4.65039 3.02572C5.05839 3.12972 5.39439 3.26972 5.65839 3.44572L5.28639 4.12972C5.00639 3.93772 4.70639 3.80172 4.38639 3.72172C4.06639 3.63372 3.74639 3.58972 3.42639 3.58972C2.85839 3.58972 2.43839 3.68972 2.16639 3.88972C1.90239 4.08172 1.77039 4.32972 1.77039 4.63372C1.77039 4.87372 1.84239 5.06172 1.98639 5.19772C2.13839 5.33372 2.33439 5.44172 2.57439 5.52172C2.82239 5.59372 3.09039 5.65372 3.37839 5.70172C3.67439 5.74972 3.96639 5.80972 4.25439 5.88172C4.55039 5.94572 4.81839 6.03772 5.05839 6.15772C5.30639 6.26972 5.50239 6.43372 5.64639 6.64972C5.79839 6.85772 5.87439 7.13372 5.87439 7.47772C5.87439 7.84572 5.77039 8.16572 5.56239 8.43772C5.36239 8.70172 5.06639 8.90972 4.67439 9.06172C4.29039 9.20572 3.82239 9.27772 3.27039 9.27772Z" fill="white"/>
<path d="M10.0538 9.27772C9.42977 9.27772 8.86977 9.14172 8.37377 8.86972C7.88577 8.58972 7.50177 8.20972 7.22177 7.72972C6.94177 7.24172 6.80177 6.68572 6.80177 6.06172C6.80177 5.42972 6.94177 4.87372 7.22177 4.39372C7.50177 3.91372 7.88577 3.53772 8.37377 3.26572C8.86977 2.99372 9.42977 2.85772 10.0538 2.85772C10.5898 2.85772 11.0738 2.96172 11.5058 3.16972C11.9378 3.37772 12.2778 3.68972 12.5258 4.10572L11.8898 4.53772C11.6738 4.21772 11.4058 3.98172 11.0858 3.82972C10.7658 3.67772 10.4178 3.60172 10.0418 3.60172C9.59377 3.60172 9.18977 3.70572 8.82977 3.91372C8.46977 4.11372 8.18577 4.39772 7.97777 4.76572C7.76977 5.13372 7.66577 5.56572 7.66577 6.06172C7.66577 6.55772 7.76977 6.98972 7.97777 7.35772C8.18577 7.72572 8.46977 8.01372 8.82977 8.22172C9.18977 8.42172 9.59377 8.52172 10.0418 8.52172C10.4178 8.52172 10.7658 8.44572 11.0858 8.29372C11.4058 8.14172 11.6738 7.90972 11.8898 7.59772L12.5258 8.02972C12.2778 8.43772 11.9378 8.74972 11.5058 8.96572C11.0738 9.17372 10.5898 9.27772 10.0538 9.27772Z" fill="white"/>
<path d="M14.1995 9.21772V2.91772H15.0155V4.63372L14.9315 4.33372C15.1075 3.85372 15.4035 3.48972 15.8195 3.24172C16.2355 2.98572 16.7515 2.85772 17.3675 2.85772V3.68572C17.3355 3.68572 17.3035 3.68572 17.2715 3.68572C17.2395 3.67772 17.2075 3.67372 17.1755 3.67372C16.5115 3.67372 15.9915 3.87772 15.6155 4.28572C15.2395 4.68572 15.0515 5.25772 15.0515 6.00172V9.21772H14.1995Z" fill="white"/>
<path d="M21.4315 9.27772C20.8235 9.27772 20.2755 9.14172 19.7875 8.86972C19.3075 8.58972 18.9275 8.20972 18.6475 7.72972C18.3675 7.24172 18.2275 6.68572 18.2275 6.06172C18.2275 5.42972 18.3675 4.87372 18.6475 4.39372C18.9275 3.91372 19.3075 3.53772 19.7875 3.26572C20.2675 2.99372 20.8155 2.85772 21.4315 2.85772C22.0555 2.85772 22.6075 2.99372 23.0875 3.26572C23.5755 3.53772 23.9555 3.91372 24.2275 4.39372C24.5075 4.87372 24.6475 5.42972 24.6475 6.06172C24.6475 6.68572 24.5075 7.24172 24.2275 7.72972C23.9555 8.20972 23.5755 8.58972 23.0875 8.86972C22.5995 9.14172 22.0475 9.27772 21.4315 9.27772ZM21.4315 8.52172C21.8875 8.52172 22.2915 8.42172 22.6435 8.22172C22.9955 8.01372 23.2715 7.72572 23.4715 7.35772C23.6795 6.98172 23.7835 6.54972 23.7835 6.06172C23.7835 5.56572 23.6795 5.13372 23.4715 4.76572C23.2715 4.39772 22.9955 4.11372 22.6435 3.91372C22.2915 3.70572 21.8915 3.60172 21.4435 3.60172C20.9955 3.60172 20.5955 3.70572 20.2435 3.91372C19.8915 4.11372 19.6115 4.39772 19.4035 4.76572C19.1955 5.13372 19.0915 5.56572 19.0915 6.06172C19.0915 6.54972 19.1955 6.98172 19.4035 7.35772C19.6115 7.72572 19.8915 8.01372 20.2435 8.22172C20.5955 8.42172 20.9915 8.52172 21.4315 8.52172Z" fill="white"/>
<path d="M26.387 9.21772V0.313721H27.239V9.21772H26.387Z" fill="white"/>
<path d="M29.6096 9.21772V0.313721H30.4616V9.21772H29.6096Z" fill="white"/>
<path d="M38.4809 9.27772C37.8809 9.27772 37.3409 9.14172 36.8609 8.86972C36.3889 8.59772 36.0169 8.22172 35.7449 7.74172C35.4729 7.25372 35.3369 6.69372 35.3369 6.06172C35.3369 5.42172 35.4729 4.86172 35.7449 4.38172C36.0169 3.90172 36.3889 3.52972 36.8609 3.26572C37.3409 2.99372 37.8809 2.85772 38.4809 2.85772C39.0329 2.85772 39.5249 2.98172 39.9569 3.22972C40.3969 3.47772 40.7449 3.84172 41.0009 4.32172C41.2649 4.79372 41.3969 5.37372 41.3969 6.06172C41.3969 6.74172 41.2689 7.32172 41.0129 7.80172C40.7569 8.28172 40.4089 8.64972 39.9689 8.90572C39.5369 9.15372 39.0409 9.27772 38.4809 9.27772ZM38.5409 8.52172C38.9889 8.52172 39.3889 8.42172 39.7409 8.22172C40.1009 8.01372 40.3809 7.72572 40.5809 7.35772C40.7889 6.98172 40.8929 6.54972 40.8929 6.06172C40.8929 5.56572 40.7889 5.13372 40.5809 4.76572C40.3809 4.39772 40.1009 4.11372 39.7409 3.91372C39.3889 3.70572 38.9889 3.60172 38.5409 3.60172C38.1009 3.60172 37.7049 3.70572 37.3529 3.91372C37.0009 4.11372 36.7209 4.39772 36.5129 4.76572C36.3049 5.13372 36.2009 5.56572 36.2009 6.06172C36.2009 6.54972 36.3049 6.98172 36.5129 7.35772C36.7209 7.72572 37.0009 8.01372 37.3529 8.22172C37.7049 8.42172 38.1009 8.52172 38.5409 8.52172ZM40.9169 9.21772V7.32172L41.0009 6.04972L40.8809 4.77772V0.313721H41.7329V9.21772H40.9169Z" fill="white"/>
<path d="M46.6737 9.27772C46.0657 9.27772 45.5177 9.14172 45.0297 8.86972C44.5497 8.58972 44.1697 8.20972 43.8897 7.72972C43.6097 7.24172 43.4697 6.68572 43.4697 6.06172C43.4697 5.42972 43.6097 4.87372 43.8897 4.39372C44.1697 3.91372 44.5497 3.53772 45.0297 3.26572C45.5097 2.99372 46.0577 2.85772 46.6737 2.85772C47.2977 2.85772 47.8497 2.99372 48.3297 3.26572C48.8177 3.53772 49.1977 3.91372 49.4697 4.39372C49.7497 4.87372 49.8897 5.42972 49.8897 6.06172C49.8897 6.68572 49.7497 7.24172 49.4697 7.72972C49.1977 8.20972 48.8177 8.58972 48.3297 8.86972C47.8417 9.14172 47.2897 9.27772 46.6737 9.27772ZM46.6737 8.52172C47.1297 8.52172 47.5337 8.42172 47.8857 8.22172C48.2377 8.01372 48.5137 7.72572 48.7137 7.35772C48.9217 6.98172 49.0257 6.54972 49.0257 6.06172C49.0257 5.56572 48.9217 5.13372 48.7137 4.76572C48.5137 4.39772 48.2377 4.11372 47.8857 3.91372C47.5337 3.70572 47.1337 3.60172 46.6857 3.60172C46.2377 3.60172 45.8377 3.70572 45.4857 3.91372C45.1337 4.11372 44.8537 4.39772 44.6457 4.76572C44.4377 5.13372 44.3337 5.56572 44.3337 6.06172C44.3337 6.54972 44.4377 6.98172 44.6457 7.35772C44.8537 7.72572 45.1337 8.01372 45.4857 8.22172C45.8377 8.42172 46.2337 8.52172 46.6737 8.52172Z" fill="white"/>
<path d="M52.7374 9.21772L50.3614 2.91772H51.1774L53.3374 8.76172H52.9654L55.1854 2.91772H55.9174L58.1134 8.76172H57.7414L59.9374 2.91772H60.7174L58.3294 9.21772H57.5254L55.4134 3.72172H55.6654L53.5414 9.21772H52.7374Z" fill="white"/>
<path d="M65.2163 2.85772C65.7283 2.85772 66.1763 2.95772 66.5603 3.15772C66.9523 3.34972 67.2563 3.64572 67.4723 4.04572C67.6963 4.44572 67.8083 4.94972 67.8083 5.55772V9.21772H66.9563V5.64172C66.9563 4.97772 66.7883 4.47772 66.4523 4.14172C66.1243 3.79772 65.6603 3.62572 65.0603 3.62572C64.6123 3.62572 64.2203 3.71772 63.8843 3.90172C63.5563 4.07772 63.3003 4.33772 63.1163 4.68172C62.9403 5.01772 62.8523 5.42572 62.8523 5.90572V9.21772H62.0003V2.91772H62.8163V4.64572L62.6843 4.32172C62.8843 3.86572 63.2043 3.50972 63.6443 3.25372C64.0843 2.98972 64.6083 2.85772 65.2163 2.85772Z" fill="white"/>
</svg>
