<svg width="124" height="124" viewBox="0 0 124 124" fill="none" xmlns="http://www.w3.org/2000/svg">
<g clip-path="url(#clip0_701_165)">
<path d="M36.9586 86.5744C38.5326 80.2089 27.8285 70.5792 16.5213 76.6185C7.86 81.934 3.62203 93.4065 1.51558 102.027C-0.62982 110.807 -0.527341 116.722 3.45727 120.634C9.72715 128.793 19.1189 119.91 13.3261 113.289C9.70719 109.153 8.70375 99.4151 18.6994 98.6804C28.695 97.9458 35.3847 92.94 36.9586 86.5744Z" fill="#111111"/>
<path d="M51.1196 84.6927C48.8276 86.5633 45.7996 86.5384 44.3564 84.6371C42.9132 82.7358 43.6014 79.6781 45.8934 77.8076C48.1854 75.937 51.2133 75.9619 52.6565 77.8632C54.0997 79.7645 53.4116 82.8222 51.1196 84.6927Z" fill="#111111"/>
<path d="M44.1912 76.2238C42.4246 77.6656 40.1021 77.6613 39.0037 76.2143C37.9053 74.7672 38.4471 72.4254 40.2137 70.9836C41.9803 69.5419 44.3028 69.5461 45.4012 70.9932C46.4996 72.4402 45.9579 74.7821 44.1912 76.2238Z" fill="#111111"/>
<path d="M37.9268 71.5747C36.3168 72.8887 34.1898 72.8712 33.176 71.5357C32.1623 70.2001 32.6456 68.0522 34.2557 66.7383C35.8657 65.4243 37.9926 65.4418 39.0064 66.7774C40.0202 68.1129 39.5368 70.2608 37.9268 71.5747Z" fill="#111111"/>
<path d="M30.9566 68.9409C29.6239 70.0286 27.832 69.9731 26.9544 68.8169C26.0768 67.6607 26.4458 65.8417 27.7785 64.754C29.1113 63.6663 30.9031 63.7218 31.7807 64.878C32.6583 66.0342 32.2894 67.8532 30.9566 68.9409Z" fill="#111111"/>
<path d="M24.4562 69.2615C23.4043 70.12 21.9952 70.0829 21.3089 69.1787C20.6226 68.2745 20.9189 66.8456 21.9708 65.9871C23.0227 65.1286 24.4319 65.1657 25.1182 66.0699C25.8045 66.9741 25.5082 68.403 24.4562 69.2615Z" fill="#111111"/>
<path d="M100.511 17.8675C105.77 14.7314 117.079 22.5023 114.603 34.8642C112.093 44.5099 102.973 51.5023 95.8446 55.7253C88.5841 60.0263 83.2958 61.4437 78.7953 58.6347C69.9306 54.7282 75.4271 43.4698 82.8006 47.3142C87.407 49.7159 96.3265 48.1811 94.4194 38.4326C92.5124 28.6842 95.2516 21.0036 100.511 17.8675Z" fill="#111111"/>
<path d="M98.5572 3.84126C97.4804 6.51262 98.2782 9.40232 100.339 10.2956C102.4 11.1888 104.944 9.7474 106.021 7.07604C107.098 4.40467 106.3 1.51498 104.239 0.621716C102.178 -0.271543 99.6341 1.16989 98.5572 3.84126Z" fill="#111111"/>
<path d="M107.866 8.29831C107.036 10.3573 107.634 12.5776 109.203 13.2574C110.772 13.9373 112.716 12.8193 113.546 10.7603C114.376 8.70124 113.777 6.48096 112.209 5.80111C110.64 5.12127 108.696 6.2393 107.866 8.29831Z" fill="#111111"/>
<path d="M113.606 13.099C112.85 14.9754 113.41 17.0053 114.858 17.6328C116.306 18.2602 118.093 17.2477 118.849 15.3712C119.605 13.4947 119.045 11.4649 117.597 10.8374C116.149 10.2099 114.363 11.2225 113.606 13.099Z" fill="#111111"/>
<path d="M117.735 19.0908C117.109 20.6441 117.617 22.3437 118.87 22.8869C120.124 23.4301 121.647 22.6112 122.273 21.0579C122.899 19.5046 122.391 17.805 121.138 17.2618C119.884 16.7186 118.361 17.5375 117.735 19.0908Z" fill="#111111"/>
<path d="M119.115 25.3902C118.621 26.6162 119.014 27.9544 119.995 28.3793C120.975 28.8041 122.17 28.1546 122.664 26.9285C123.158 25.7025 122.764 24.3643 121.784 23.9395C120.804 23.5147 119.609 24.1642 119.115 25.3902Z" fill="#111111"/>
</g>
<defs>
<clipPath id="clip0_701_165">
<rect width="124" height="124" fill="white"/>
</clipPath>
</defs>
</svg>
