<svg width="60" height="60" viewBox="0 0 60 60" fill="none" xmlns="http://www.w3.org/2000/svg">
<path fill-rule="evenodd" clip-rule="evenodd" d="M19.9961 6C12.2781 6 6 12.2839 6 20.0039V40.0039C6 47.7219 12.2839 54 20.0039 54H40.0039C47.7219 54 54 47.7161 54 39.9961V19.9961C54 12.2781 47.7161 6 39.9961 6H19.9961ZM39.7946 17.7884C40.5254 17.495 41.2322 17.5496 41.6822 17.9312C42.005 18.2042 42.3386 18.7598 42.0986 19.8518L38.165 40.298C38.132 40.3832 37.8164 41.135 37.0274 41.459C36.7958 41.5538 36.5534 41.6012 36.3008 41.6012C35.9738 41.6012 35.6312 41.522 35.2736 41.3636L35.1482 41.2886L29.882 37.1816L26.6198 40.2074C26.3294 40.4354 25.8806 40.5944 25.4294 40.4204C24.9152 40.2638 24.6218 39.503 24.4418 38.924C24.1754 38.0668 23.0432 34.2972 22.592 32.795C22.5544 32.6696 22.5215 32.56 22.4942 32.4692L17.1584 30.6422C17.0252 30.5936 15.9344 30.1724 15.8096 29.1554C15.6698 28.0274 17.027 27.521 17.1824 27.467C18.0368 27.0992 39.0248 18.0968 39.7934 17.7884H39.7946ZM25.4 38L27.2 33.2L37.4 21.8L23.6 32L25.4 38Z" fill="white"/>
</svg>
