<svg width="178" height="61" viewBox="0 0 178 61" fill="none" xmlns="http://www.w3.org/2000/svg">
<path d="M1 33.2164C33 37.7163 42.4212 20.2165 46.9212 8.71643C48.8777 3.7165 48 -5.28368 47 7.71632C46 20.7163 38 54.7164 27 56.2164C16 57.7164 19.9802 52.4445 25 52.2164C35.9998 51.7164 42.9999 57.7164 52.4998 53.2164C59.7999 49.7583 59.1466 37.4833 61.5 25.7164C62 23.2164 61.5452 22.2164 60.9998 25.2164C59.3331 34.383 57.5998 52.2164 63.9998 52.2164C70.3998 52.2164 75.9998 30.883 77.9998 20.2164C78.4998 18.2164 78.4999 14.6164 74.4999 16.2164C69.4998 18.2164 69.9997 29.7164 77.9998 29.7164C79.1664 29.883 82.0998 29.8164 84.4998 28.2164C81.1665 35.2164 76.0998 49.4164 82.4998 50.2164C87.2998 50.6164 94 32.5497 96.5 24.2164C94.5 32.0497 91.4999 49.4164 97.4999 50.2164C103.1 50.6164 108 32.883 109.5 25.2164C107.5 33.383 104.6 52.3164 111 52.7164C119 53.2164 131.5 7.21637 129.5 5.21637C127.5 3.21637 117.5 50.2164 125 52.2164C130.5 53.7163 132.5 35.2164 134.5 29.7164C136.5 24.2164 142.167 23.2164 144.5 26.7164C146.833 30.2163 146.5 39.7164 138 37.7163C134.099 36.7984 132.5 39.7163 132.5 41.2163C132.333 44.2163 131.6 51.8164 138 52.2164C146 52.7164 150 31.7164 156 28.2164C162 24.7164 162.5 25.2164 160 26.2164C157.5 27.2163 149 33.2163 155.5 37.7163C162 42.2163 164.5 49.2164 158 52.2164C151.5 55.2164 149 49.7164 154 46.7164C159 43.7164 171 46.7164 177 59.7164" stroke="black" stroke-width="2" stroke-linecap="round"/>
</svg>
