<svg width="46" height="46" viewBox="0 0 46 46" fill="none" xmlns="http://www.w3.org/2000/svg">
<path fill-rule="evenodd" clip-rule="evenodd" d="M0 15C0 6.71573 6.71573 0 15 0H31C39.2843 0 46 6.71573 46 15V31C46 39.2843 39.2843 46 31 46H15C6.71573 46 0 39.2843 0 31V15ZM23 5C13.0595 5 5 13.0595 5 23C5 26.3768 5.94851 29.5251 7.56641 32.2256L5.16113 41L14.123 38.6475C16.744 40.1376 19.7697 41 23 41C32.9405 41 41 32.9405 41 23C41 13.0595 32.9405 5 23 5ZM16.8389 14.6035L16.9306 14.6035C17.1936 14.6033 17.459 14.6031 17.6914 14.6152C18.0124 14.6227 18.3618 14.6462 18.6963 15.3857C18.9293 15.9011 19.3233 16.8724 19.6317 17.6328L19.6322 17.6339C19.8496 18.17 20.0244 18.601 20.0703 18.6934C20.1813 18.9169 20.26 19.1801 20.1055 19.4727C20.0882 19.5078 20.072 19.5414 20.0563 19.5736C19.9386 19.8164 19.8567 19.9854 19.666 20.2197C19.5926 20.3045 19.5169 20.396 19.4411 20.4876L19.4399 20.489C19.2854 20.6757 19.1308 20.8625 18.9951 20.9932C18.7716 21.2167 18.5408 21.4617 18.7988 21.9072C19.0568 22.3527 19.9528 23.8132 21.2773 24.9922C22.7007 26.2639 23.9382 26.799 24.5669 27.071L24.5675 27.0712C24.6905 27.1245 24.7901 27.1675 24.8633 27.2041C25.3103 27.4276 25.5691 27.3928 25.8271 27.0928C26.0926 26.8003 26.9422 25.7966 27.2422 25.3496C27.5347 24.9026 27.8333 24.9799 28.2383 25.127C28.6493 25.274 30.8411 26.3536 31.2881 26.5771C31.3756 26.6209 31.4572 26.6603 31.5327 26.6968C31.8429 26.8467 32.0502 26.9468 32.1406 27.0928C32.2561 27.2803 32.2562 28.1729 31.8857 29.2139C31.5152 30.2534 29.6959 31.2586 28.8799 31.3291C28.8016 31.3364 28.7238 31.3456 28.6439 31.3551C27.8832 31.4454 26.9304 31.5585 23.5273 30.2188C19.3285 28.5651 16.5653 24.4613 16.0004 23.6223C15.955 23.555 15.9238 23.5086 15.9072 23.4863C15.6837 23.1938 14.0908 21.0709 14.0908 18.8809C14.0908 16.8367 15.0878 15.7628 15.5517 15.2631C15.5865 15.2256 15.6183 15.1913 15.6465 15.1602C16.0575 14.7132 16.5389 14.6035 16.8389 14.6035Z" fill="white"/>
</svg>
