<svg width="32" height="32" viewBox="0 0 32 32" fill="none" xmlns="http://www.w3.org/2000/svg">
<path fill-rule="evenodd" clip-rule="evenodd" d="M0 9.13814C0 4.10052 4.09673 0 9.13305 0H22.1839C27.2215 0 31.322 4.09673 31.322 9.13305V22.1839C31.322 27.2215 27.2253 31.322 22.189 31.322H9.13814C7.23478 31.322 5.46519 30.7372 4 29.7378C2.0046 30.3675 1.00461 30.683 0.673966 30.3446C0.3418 30.0046 0.685176 29.0046 1.37351 27C0.503163 25.6021 0 23.9532 0 22.189V9.13814ZM10.5078 8.00004C10.4808 8.00005 10.4538 8.00007 10.4268 8.00007C10.1619 8.00007 9.73678 8.09796 9.37382 8.49705C9.34896 8.5249 9.32087 8.55548 9.29013 8.58895C8.88043 9.03512 8 9.9939 8 11.8189C8 13.7742 9.40671 15.6696 9.60409 15.9308C9.61876 15.9507 9.6463 15.992 9.68637 16.0522C10.1852 16.8012 12.6255 20.4651 16.3335 21.9416C19.3387 23.1377 20.1802 23.0368 20.852 22.9561C20.9226 22.9477 20.9912 22.9394 21.0604 22.9329C21.781 22.87 23.3877 21.9725 23.7149 21.0444C24.0421 20.115 24.042 19.3181 23.94 19.1507C23.8601 19.0203 23.6771 18.931 23.4031 18.7972C23.3365 18.7646 23.2644 18.7294 23.1871 18.6903C22.7923 18.4908 20.8567 17.5268 20.4938 17.3956C20.1361 17.2643 19.8724 17.1953 19.6141 17.5943C19.3492 17.9934 18.5989 18.8895 18.3645 19.1507C18.1366 19.4185 17.908 19.4496 17.5133 19.2501C17.4486 19.2173 17.3604 19.1788 17.2515 19.1312C16.6963 18.8884 15.6035 18.4106 14.3465 17.2752C13.1768 16.2226 12.3855 14.9187 12.1577 14.5209C11.9298 14.1232 12.1337 13.9044 12.331 13.7048C12.4508 13.5882 12.5874 13.4214 12.7238 13.2547C12.7911 13.1725 12.8583 13.0904 12.9235 13.0143C13.0919 12.805 13.1643 12.6542 13.2682 12.4374C13.282 12.4087 13.2964 12.3787 13.3116 12.3473C13.448 12.0862 13.3786 11.8511 13.2806 11.6515C13.24 11.5691 13.0856 11.1842 12.8937 10.7057C12.6212 10.0266 12.2731 9.15882 12.0671 8.69845C11.7717 8.03822 11.4632 8.01723 11.1797 8.01053C10.9745 7.99974 10.7401 7.99989 10.5078 8.00004Z" fill="white"/>
</svg>
