<svg width="48" height="48" viewBox="0 0 48 48" fill="none" xmlns="http://www.w3.org/2000/svg">
<g clip-path="url(#clip0_801_8)">
<rect x="1.5" y="1.5" width="45" height="45" rx="14.5" stroke="white" stroke-width="3"/>
<path d="M11.303 17.693L13.2184 13.8346C14.0765 12.1061 16.3197 11.6256 17.8104 12.8509L19.4882 14.2299C20.6633 15.1957 20.9217 16.8874 20.2636 18.2588C19.9199 18.9752 19.5815 19.7814 19.3555 20.5639C18.8262 22.3964 25.949 29.3205 28.3288 28.6984C28.843 28.5639 29.4336 28.2015 29.9949 27.7755C31.3018 26.7835 33.1566 26.6387 34.3901 27.7206L35.5022 28.696C36.9966 30.0067 36.8262 32.3821 35.16 33.4661L31.5341 35.8249C30.8036 36.3001 29.9003 36.4399 29.0826 36.1385C28.2553 35.8336 27.2088 35.3915 26.4925 34.888C19.9558 30.2925 17.1283 27.6084 12.2536 21.98C11.5457 21.1628 11.2109 20.0087 11.0579 19.2405C10.9529 18.7131 11.0638 18.1747 11.303 17.693Z" stroke="white" stroke-width="3"/>
</g>
<defs>
<clipPath id="clip0_801_8">
<rect width="48" height="48" fill="white"/>
</clipPath>
</defs>
</svg>
